
<svg width="100px" height="100px" viewBox="0 0 100 100" version="1.1" xmlns="http://www.w3.org/2000/svg" xmlns:xlink="http://www.w3.org/1999/xlink">
    <!-- Generator: Sketch 46.2 (44496) - http://www.bohemiancoding.com/sketch -->
    <desc>Created with Sketch.</desc>
    <defs></defs>
    <g id="Automate-Elections" stroke="none" stroke-width="1" fill="none" fill-rule="evenodd">
        <g id="Success-page" transform="translate(-226.000000, -270.000000)" fill-rule="nonzero" fill="#36A472">
            <g id="next-steps" transform="translate(156.000000, 254.000000)">
                <g id="exit" transform="translate(70.000000, 16.000000)">
                    <path d="M99.8622696,42.9418182 C99.7695402,42.7181818 99.6349917,42.5163636 99.4677152,42.3472727 L77.6508557,20.5327273 C76.9399305,19.8218182 75.7908134,19.8218182 75.0798882,20.5327273 C74.3689629,21.2436364 74.3689629,22.3927273 75.0798882,23.1036364 L93.794859,41.8181818 L65.4560331,41.8181818 L65.4560331,1.81818182 C65.4560331,0.812727273 64.6432873,0 63.63781,0 L1.81822314,0 C1.76004,0 1.70912975,0.0272727273 1.65276484,0.0327272727 C1.55094434,0.0418181818 1.46185141,0.0654545455 1.36548558,0.0909090909 C1.1945726,0.136363636 1.04184186,0.198181818 0.894565786,0.287272727 C0.847291984,0.316363636 0.789108843,0.316363636 0.745471488,0.349090909 C0.689106571,0.390909091 0.645469215,0.443636364 0.594558967,0.489090909 C0.563649174,0.518181818 0.530921157,0.543636364 0.501829587,0.574545455 C0.363644628,0.723636364 0.250914794,0.889090909 0.167276529,1.07090909 C0.150912521,1.10727273 0.141821405,1.14363636 0.12727562,1.18 C0.050910248,1.38363636 0,1.59636364 0,1.81818182 L0,85.4545455 C0,85.6818182 0.0527284711,85.8963636 0.130912066,86.1 C0.15636719,86.1672727 0.194549876,86.2236364 0.227277893,86.2872727 C0.294552149,86.4163636 0.370917521,86.5345455 0.467283347,86.6436364 C0.520011818,86.7018182 0.57274029,86.7545455 0.63092343,86.8072727 C0.736380372,86.9 0.854564876,86.9763636 0.981840496,87.0436364 C1.04911475,87.08 1.11093434,87.1181818 1.18366327,87.1454545 C1.21457306,87.1563636 1.23820996,87.1781818 1.26911975,87.1890909 L41.2700289,99.9163636 C41.4482147,99.9709091 41.6336735,100 41.8191323,100 C42.2009591,100 42.5773313,99.88 42.8918839,99.6509091 C43.3609855,99.3090909 43.6373554,98.7636364 43.6373554,98.1818182 L43.6373554,87.2727273 L63.63781,87.2727273 C64.6432873,87.2727273 65.4560331,86.46 65.4560331,85.4545455 L65.4560331,45.4545455 L93.794859,45.4545455 L75.0798882,64.1690909 C74.3689629,64.88 74.3689629,66.0290909 75.0798882,66.74 C75.4344417,67.0945455 75.8999068,67.2727273 76.3653719,67.2727273 C76.8308371,67.2727273 77.2963022,67.0945455 77.6508557,66.74 L99.4677152,44.9236364 C99.6368099,44.7563636 99.7695402,44.5545455 99.8622696,44.3309091 C100.04591,43.8872727 100.04591,43.3854545 99.8622696,42.9418182 Z M38.0517739,58.8563636 C37.7681311,59.5690909 37.0844792,60 36.3644628,60 C36.1390032,60 35.909907,59.96 35.689902,59.8709091 L26.5987863,56.2345455 C25.6660379,55.8618182 25.2114821,54.8036364 25.5842178,53.8709091 C25.9569536,52.9345455 27.0224323,52.4836364 27.9479079,52.8563636 L37.0390236,56.4927273 C37.9699539,56.8654545 38.4245096,57.9236364 38.0517739,58.8563636 Z M61.8195868,83.6363636 L43.6373554,83.6363636 L43.6373554,14.5454545 C43.6373554,13.7527273 43.1246165,13.0527273 42.3700539,12.8127273 L13.5293984,3.63636364 L61.8195868,3.63636364 L61.8195868,83.6363636 L61.8195868,83.6363636 Z" id="Shape"></path>
                </g>
            </g>
        </g>
    </g>
</svg>