
<svg width="93px" height="93px" viewBox="0 0 93 93" version="1.1" xmlns="http://www.w3.org/2000/svg" xmlns:xlink="http://www.w3.org/1999/xlink">
    <!-- Generator: Sketch 46.2 (44496) - http://www.bohemiancoding.com/sketch -->
    <desc>Created with Sketch.</desc>
    <defs></defs>
    <g id="Automate-Elections" stroke="none" stroke-width="1" fill="none" fill-rule="evenodd">
        <g id="Voting-page" transform="translate(-617.000000, -132.000000)" fill-rule="nonzero" fill="#D7D7D7">
            <g id="Pres" transform="translate(342.000000, 50.000000)">
                <g id="runner" transform="translate(267.000000, 82.000000)">
                    <g id="user" transform="translate(8.000000, 0.000000)">
                        <path d="M46.499225,0 C20.818707,0 0,20.8191882 0,46.499535 C0,72.1792618 20.818707,93 46.499225,93 C72.179743,93 93,72.1792618 93,46.499535 C93,20.8185682 72.179743,0 46.499225,0 Z M46.6408973,68.4372144 L46.6408973,68.4365944 L46.3569326,68.4365944 L26.4942816,68.4365944 C26.4942816,53.9110891 39.2516142,53.9144991 42.0825814,50.1163412 L42.4065368,48.3843538 C38.4291705,46.3687137 35.6214537,41.5091051 35.6214537,35.8255083 C35.6214537,28.3376934 40.4922549,22.2665927 46.499225,22.2665927 C52.5061951,22.2665927 57.3769963,28.3376934 57.3769963,35.8255083 C57.3769963,41.4607446 54.6191903,46.2899729 50.6948349,48.3375434 L51.0637411,50.3057531 C54.1696828,53.9197692 66.5026184,54.1553716 66.5026184,68.4372144 L46.6408973,68.4372144 L46.6408973,68.4372144 Z" id="Shape"></path>
                    </g>
                </g>
            </g>
        </g>
    </g>
</svg>