<svg width="91px" height="91px" viewBox="0 0 91 91" version="1.1" xmlns="http://www.w3.org/2000/svg"
>
    <!-- Generator: Sketch 46.2 (44496) - http://www.bohemiancoding.com/sketch -->
    <desc>Created with Sketch.</desc>
    <defs></defs>
    <g id="Automate-Elections" stroke="none" stroke-width="1" fill="none" fill-rule="evenodd">
        <g id="Sign-in-page" transform="translate(-118.000000, -144.000000)" fill-rule="nonzero" fill="#EEEEEE">
            <g id="elections" transform="translate(118.000000, 144.000000)">
                <path d="M89.1108941,0 C84.6645536,0 79.0129962,2.8820954 77.3393985,3.78936216 L53.2224861,0.0648685907 C49.8338537,0.0648685907 41.6549885,0.285922163 39.0030153,2.25699807 L23.892116,11.7228087 C23.1744045,12.1726 22.8418453,13.0457348 23.0724055,13.8652592 C23.3066844,14.6849623 24.0470623,15.2491224 24.8894392,15.2491224 L41.8892674,15.2491224 C42.0403179,15.2491224 42.1876498,15.2300014 42.3349816,15.2033749 L44.8660081,14.5743461 C46.5017103,14.3341715 48.1336938,14.8259576 49.3766292,15.9124619 C50.6232832,16.9989661 51.3335573,18.5735037 51.3335573,20.235605 C51.3335573,21.5585311 50.9255614,22.8203413 50.1511838,23.8916559 L44.2088585,32.1299669 C42.5504898,34.6383978 42.8791532,38.0085266 44.9945693,40.1434717 C46.2222756,41.3786554 47.8315927,42 49.4448056,42 C51.0580184,42 52.6671584,41.3786554 53.8950418,40.1395402 L63.4716117,30.4753711 C67.0491901,30.2732599 70.3205945,28.7140906 72.7459033,26.1979756 C76.1005361,29.3354352 86.8368129,30.3304443 88.9637393,30.4944922 C89.0127909,30.4982449 89.0620196,30.4982449 89.1110712,30.4982449 C89.5833477,30.4982449 90.0441138,30.3190074 90.3917249,29.9912692 C90.780773,29.6290415 91,29.1220658 91,28.5922163 L91,1.90620732 C90.9998229,0.85401376 90.1535502,0 89.1108941,0 Z M74.0076093,12.7406916 L71.8279126,21.085866 C70.037264,24.5435585 66.5429139,26.6861877 62.6669531,26.6861877 C62.1645728,26.6861877 61.6846818,26.8843675 61.3296333,27.2428424 L51.2204022,37.4445451 C50.2721305,38.4014909 48.6137619,38.4014909 47.6654902,37.4445451 C46.8192175,36.5944628 46.6871147,35.2449102 47.3065459,34.3070855 L53.2074342,26.1334644 C54.4540882,24.4064945 55.1114149,22.3630446 55.1114149,20.2282782 C55.1114149,17.4643044 53.9251457,14.8377519 51.8550624,13.0267924 C50.1437464,11.532313 47.9791016,10.7165414 45.6520731,10.7165414 C45.1610259,10.7165414 44.6584685,10.7546048 44.1560882,10.8271575 L41.6663217,11.4368865 L31.5117577,11.4368865 L41.1186085,5.41340005 C42.3009819,4.53651252 47.5029294,3.87710453 52.9354369,3.85423075 L75.3412104,7.33479698 C74.9746516,8.65772309 74.4986564,10.5256883 74.0076093,12.7406916 Z M87.2221424,26.4955133 C83.1384649,26.0303537 78.1215677,25.0810921 75.9833081,23.880219 C76.361023,20.1746678 77.0259642,16.5834854 77.6832909,13.6175791 L79.4135546,6.99186909 C81.1588703,6.06548128 84.4115041,4.55956499 87.2221424,4.01452587 L87.2221424,26.4955133 L87.2221424,26.4955133 Z"
                      id="Shape"></path>
                <path d="M71.969625,69.8471335 L68.1802168,47.1103288 C68.0286973,46.1971263 67.2403697,45.5263906 66.3120686,45.5263906 L56.8420118,45.5263906 C56.8420118,44.4804976 55.9931119,43.6315976 54.9472188,43.6315976 C53.9013258,43.6315976 53.0524259,44.4804976 53.0524259,45.5263906 L53.0524259,47.402177 C53.0524259,47.4098151 53.0486956,47.4135454 53.0486956,47.4211835 C53.0486956,47.4288217 53.0524259,47.4325519 53.0524259,47.4401901 L53.0524259,56.8947929 L18.9472188,56.8947929 L18.9472188,22.7895859 L45.4736094,22.7895859 C46.5195024,22.7895859 47.3684024,21.940686 47.3684024,20.8947929 C47.3684024,19.8488999 46.5195024,19 45.4736094,19 L17.0526035,19 C16.0067105,19 15.1578106,19.8488999 15.1578106,20.8947929 L15.1578106,45.5263906 L5.68420118,45.5263906 C4.75963033,45.5263906 3.96757242,46.1971263 3.81605293,47.1103288 L0.026644693,69.8471335 C0.0190065477,69.8963373 0.0380130954,69.941811 0.0342828384,69.9872846 C0.03037495,70.0480345 0,70.0972383 0,70.1579882 L0,89.1053847 C0,90.1511001 0.84889992,91 1.89479294,91 L70.1052071,91 C71.1511001,91 72,90.1511001 72,89.1052071 L72,70.1579882 C72,70.0935081 71.969625,70.0366661 71.9621645,69.9760938 C71.9582566,69.9306202 71.9770856,69.8888768 71.969625,69.8471335 Z M7.28714591,49.3157988 L15.1578106,49.3157988 L15.1578106,56.8947929 L13.2631953,56.8947929 C12.2173023,56.8947929 11.3684024,57.7436929 11.3684024,58.7895859 C11.3684024,59.8354789 12.2173023,60.6843788 13.2631953,60.6843788 L58.7368047,60.6843788 C59.7826977,60.6843788 60.6315976,59.8354789 60.6315976,58.7895859 C60.6315976,57.7436929 59.7826977,56.8947929 58.7368047,56.8947929 L56.8420118,56.8947929 L56.8420118,49.3157988 L64.7089462,49.3157988 L67.8656318,68.2631953 L4.13046031,68.2631953 L7.28714591,49.3157988 Z M68.2104141,87.2105918 L3.78940824,87.2105918 L3.78940824,72.0527812 L68.2104141,72.0527812 L68.2104141,87.2105918 Z"
                      id="Shape"></path>
            </g>
        </g>
    </g>
</svg>