<svg width="72px" height="108px" viewBox="0 0 72 108" version="1.1" xmlns="http://www.w3.org/2000/svg"
>
    <!-- Generator: Sketch 46.2 (44496) - http://www.bohemiancoding.com/sketch -->
    <desc>Created with Sketch.</desc>
    <defs></defs>
    <g id="Automate-Elections" stroke="none" stroke-width="1" fill="none" fill-rule="evenodd">
        <g id="Success-page" transform="translate(-741.000000, -262.000000)" fill-rule="nonzero" fill="#36A472">
            <g id="next-steps" transform="translate(156.000000, 254.000000)">
                <g id="id-card" transform="translate(585.000000, 8.000000)">
                    <path d="M66.6,7.19826389 L45,7.19826389 L48.24,2.87818948 C48.8376,2.08437581 48.6756,0.955756373 47.88,0.359946111 C47.0862,-0.23586415 45.9576,-0.0756613912 45.3618,0.719952312 L40.5,7.19826389 L31.7124,7.19826389 L28.6092,0.993557024 C28.1646,0.104341709 27.0828,-0.252064429 26.1936,0.188943166 C25.3044,0.633550824 24.9444,1.71536946 25.389,2.60458477 L27.6876,7.19826389 L5.4,7.19826389 C2.4228,7.19826389 0,9.62110562 0,12.5983569 L0,102.599907 C0,105.577158 2.4228,108 5.4,108 L66.6,108 C69.5772,108 72,105.577158 72,102.599907 L72,12.5983569 C72,9.62110562 69.5772,7.19826389 66.6,7.19826389 Z M21.6,98.999845 L19.8,98.999845 C18.8046,98.999845 18,98.1952311 18,97.199814 C18,96.2043968 18.8046,95.399783 19.8,95.399783 L21.6,95.399783 C22.5954,95.399783 23.4,96.2043968 23.4,97.199814 C23.4,98.1952311 22.5954,98.999845 21.6,98.999845 Z M32.4,98.999845 L28.8,98.999845 C27.8046,98.999845 27,98.1952311 27,97.199814 C27,96.2043968 27.8046,95.399783 28.8,95.399783 L32.4,95.399783 C33.3954,95.399783 34.2,96.2043968 34.2,97.199814 C34.2,98.1952311 33.3954,98.999845 32.4,98.999845 Z M41.4,98.999845 L39.6,98.999845 C38.6046,98.999845 37.8,98.1952311 37.8,97.199814 C37.8,96.2043968 38.6046,95.399783 39.6,95.399783 L41.4,95.399783 C42.3954,95.399783 43.2,96.2043968 43.2,97.199814 C43.2,98.1952311 42.3954,98.999845 41.4,98.999845 Z M52.2,98.999845 L48.6,98.999845 C47.6046,98.999845 46.8,98.1952311 46.8,97.199814 C46.8,96.2043968 47.6046,95.399783 48.6,95.399783 L52.2,95.399783 C53.1954,95.399783 54,96.2043968 54,97.199814 C54,98.1952311 53.1954,98.999845 52.2,98.999845 Z M52.2,91.799721 L19.8,91.799721 C18.8046,91.799721 18,90.9951071 18,89.99969 C18,89.0042728 18.8046,88.199659 19.8,88.199659 L52.2,88.199659 C53.1954,88.199659 54,89.0042728 54,89.99969 C54,90.9951071 53.1954,91.799721 52.2,91.799721 Z M25.2,82.799566 C25.2,81.8041488 26.0046,80.999535 27,80.999535 L45,80.999535 C45.9954,80.999535 46.8,81.8041488 46.8,82.799566 C46.8,83.7949831 45.9954,84.599597 45,84.599597 L27,84.599597 C26.0046,84.599597 25.2,83.7949831 25.2,82.799566 Z M68.4,71.99938 L53.7336,71.99938 C53.1846,69.8699433 51.7626,68.0501119 49.7556,67.0456946 L43.2,63.697637 L43.2,63.001025 C46.1304,61.4007974 48.1914,58.765552 49.3416,55.1456897 C51.0858,54.2204738 52.2,52.4186427 52.2,50.3990079 L52.2,48.5989769 C52.2,46.9321482 51.4242,45.3859216 50.1282,44.3707041 C49.005,37.5665869 44.2566,34.1177275 36,34.1177275 C35.6094,34.1177275 35.2278,34.1321278 34.8552,34.1609283 C32.6952,34.3337312 30.6018,33.8675232 29.052,32.8289053 C28.3158,32.3320968 27.7596,31.8496885 27.405,31.4014807 C26.6058,30.3790631 24.939,30.3322623 24.0876,31.2898788 C23.679,31.7470867 23.4864,32.3626973 23.5584,32.9747078 C23.634,33.6479194 23.7474,34.4309329 23.9184,35.2895477 C24.2658,37.0445779 24.2658,37.0445779 23.778,38.095796 C23.5944,38.4918029 23.3676,38.9760112 23.1012,39.6294225 C22.5054,41.0892476 22.0824,42.6876751 21.8394,44.3941045 C20.5632,45.409322 19.8,46.9483485 19.8,48.5989769 L19.8,50.3990079 C19.8,52.4186427 20.9142,54.2204738 22.6584,55.1456897 C23.8086,58.7673521 25.8696,61.4025975 28.8,63.001025 L28.8,63.6778366 L22.0158,67.0222942 C20.0772,68.0789124 18.7254,69.8987438 18.2232,71.99938 L3.6,71.99938 L3.6,12.5983569 C3.6,11.6047398 4.4064,10.7983259 5.4,10.7983259 L29.4876,10.7983259 L31.2876,14.3983879 C29.7756,15.7196107 28.8,17.6366437 28.8,19.7984809 C28.8,23.7693493 32.0292,26.9986049 36,26.9986049 C39.9708,26.9986049 43.2,23.7693493 43.2,19.7984809 C43.2,15.8276125 39.9708,12.5983569 36,12.5983569 C35.4834,12.5983569 34.9812,12.6577579 34.4952,12.7621597 L33.5124,10.7983259 L66.6,10.7983259 C67.5936,10.7983259 68.4,11.6047398 68.4,12.5983569 L68.4,71.99938 Z M32.9976,17.8202468 L34.389,20.6030948 C34.7058,21.2349056 35.3412,21.5985119 36.0018,21.5985119 C36.2718,21.5985119 36.5472,21.5373108 36.8046,21.4095086 C37.6938,20.964901 38.0538,19.8830824 37.6092,18.993867 L36.2232,16.2218193 C38.1024,16.3388213 39.6,17.890448 39.6,19.7984809 C39.6,21.7839151 37.9854,23.3985429 36,23.3985429 C34.0146,23.3985429 32.4,21.7839151 32.4,19.7984809 C32.4,19.0676683 32.6214,18.3890566 32.9976,17.8202468 Z"
                          id="Shape"></path>
                </g>
            </g>
        </g>
    </g>
</svg>