
<svg width="98px" height="98px" viewBox="0 0 98 98" version="1.1" xmlns="http://www.w3.org/2000/svg" xmlns:xlink="http://www.w3.org/1999/xlink">
    <!-- Generator: Sketch 46.2 (44496) - http://www.bohemiancoding.com/sketch -->
    <desc>Created with Sketch.</desc>
    <defs></defs>
    <g id="Automate-Elections" stroke="none" stroke-width="1" fill="none" fill-rule="evenodd">
        <g id="Success-page" transform="translate(-475.000000, -272.000000)" fill-rule="nonzero" fill="#36A472">
            <g id="next-steps" transform="translate(156.000000, 254.000000)">
                <g id="file" transform="translate(319.000000, 18.000000)">
                    <path d="M74.2893761,45.8076791 C74.2893761,46.7080006 73.5646829,47.4377329 72.671002,47.4377329 L71.6513865,47.4377329 L68.4144487,50.6980316 L72.671002,50.6980316 C73.5648726,50.6980316 74.2893761,51.427955 74.2893761,52.3280855 C74.2893761,53.228407 73.5646829,53.9581393 72.671002,53.9581393 L60.5002902,53.9581393 L57.1662462,57.218438 L72.6708124,57.218438 C73.5646829,57.218438 74.2891865,57.9481703 74.2891865,58.8484918 C74.2929797,59.0796374 74.2430989,59.3084906 74.1435271,59.5169037 C74.115647,59.5923603 74.0775252,59.6638053 74.0302997,59.7287553 C73.9635392,59.8231238 73.8876749,59.9104242 73.8036553,59.9895104 C73.7410673,60.0577079 73.6705135,60.1180732 73.5933216,60.168887 C73.5106296,60.233455 73.4176959,60.2831226 73.3181241,60.3155976 C73.2217765,60.3652652 73.1178425,60.3983133 73.0106842,60.4134046 L72.6708124,60.4785457 L53.8322021,60.4785457 L26.3188942,87.4734827 L25.8009311,87.7995699 L18,92.3638352 C19.024926,92.7946065 20.1262852,93.0108518 21.2369378,92.9995811 L75.7945228,92.9995811 C80.2947901,92.9997721 83.9556194,89.3490093 84,84.8164548 L84,35 L74.0627317,45.0089852 C74.2123739,45.247963 74.2908934,45.5251466 74.2893761,45.8076791 Z" id="Shape"></path>
                    <path d="M22.406224,56.7653274 L25.7471412,53.5250281 L22.7306421,53.5250281 C21.8349289,53.5250281 21.1089318,52.7997722 21.1089318,51.9049734 C21.1089318,51.0101746 21.8349289,50.2849187 22.7306421,50.2849187 L29.0880583,50.2849187 L32.331669,47.0446194 L22.7308322,47.0446194 C21.835119,47.0446194 21.1091218,46.3193635 21.1091218,45.4245647 C21.1091218,44.5297659 21.835119,43.80451 22.7308322,43.80451 L35.705085,43.80451 L38.9486957,40.5642107 L22.7310222,40.5642107 C21.835309,40.5642107 21.1093119,39.8387649 21.1093119,38.944156 C21.1093119,38.0493572 21.835309,37.3241013 22.7310222,37.3241013 L42.3221117,37.3241013 L63.2749209,16.7970796 L64.8966313,15.0798179 C64.8799067,14.8802775 64.8799067,14.6797879 64.8966313,14.4804375 L64.8966313,5.53719626 L69.7619523,10.3328088 L72,8.11318388 L64.4264436,0.482428106 C64.221568,0.257446876 63.9573962,0.0945490739 63.6641466,0.0125306002 C63.5349115,-0.00417686672 63.404156,-0.00417686672 63.2749209,0.0125306002 L21.2223926,0.0125306002 C16.6812996,0.0125306002 13,3.69007189 13,8.22652886 L13,66 L21.1089318,58.0290194 C21.2434883,57.383124 21.7566276,56.8834188 22.406224,56.7653274 Z" id="Shape"></path>
                    <path d="M97.999872,8.88506131 C98.0111649,6.58321304 97.1335695,4.36595917 95.5498782,2.69531532 C93.9072339,0.9798862 91.6367787,0.00685912584 89.2616246,0.000543253802 C86.7088459,-0.026634135 84.250813,0.966871675 82.4343723,2.76057933 L74.7903916,10.4039328 L72.4873975,12.7230062 L66.966681,18.2595379 L65.970414,19.2557232 L47.2524613,37.5639051 L43.9857391,40.8303593 L40.7190169,44.0968135 L34.0550338,50.6295304 L30.7883116,53.8959846 L24.1243284,60.4287016 L13.0666259,71.0770705 L12.0376285,72.0897153 C11.961449,72.1892381 11.8904375,72.2927801 11.8253595,72.3999586 C11.8253595,72.3999586 11.8253595,72.4816821 11.7273598,72.530678 L0.179849948,95.6239942 C-0.150133592,96.2678304 -0.0172979902,97.0519555 0.506579591,97.5511008 C1.03198842,98.0500546 1.82345126,98.1430702 2.45030514,97.7798119 L15.2230033,90.3814377 L24.4022496,85.0736171 L24.5002494,84.9266295 L24.6962489,84.7959101 L49.8167244,60.4287016 L53.0834466,57.1622474 L59.8126991,50.6295304 L61.2009651,49.2739146 L62.3769621,50.4498152 L62.605692,50.6295304 C62.878828,50.8201549 63.2036436,50.92274 63.5366896,50.9235056 C63.8651419,50.9258023 64.1857466,50.8228344 64.4514178,50.6295304 L64.6801477,50.4498152 L67.8488701,47.3630763 L89.0818945,26.1316025 C90.5438518,24.6624924 90.923218,22.432224 90.0291617,20.5623431 L95.4354175,15.1565308 C97.0897376,13.4897148 98.0125048,11.233226 97.999872,8.88506131 Z M13.5568161,87.5724057 L5.53710593,92.2107439 L13.0668173,77.1690161 L13.6385464,76.0258433 L20.9232584,83.2934981 L13.5568161,87.5724057 Z M63.6999588,46.9873776 L62.5402312,45.8277452 L61.3805037,44.6681128 L61.9522327,44.0964307 L63.6999588,42.3653076 L66.0029529,44.6681128 L63.6999588,46.9873776 Z M86.7232013,23.8682237 C86.714588,23.8770276 86.7059748,23.8856402 86.6973615,23.8940613 L84.933366,25.6579121 L73.0263961,37.5639051 L68.2244083,42.365499 L66.7054121,40.8303593 L65.9214141,40.0464256 L68.4041383,37.5639051 L76.3093878,29.6593042 L84.4760976,21.4932644 C84.6087418,21.3751767 84.7643547,21.2861804 84.933366,21.232017 C85.537634,21.018617 86.2096596,21.1430206 86.6973615,21.5587198 C87.3422075,22.1891587 87.3538833,23.2232392 86.7232013,23.8682237 Z" id="Shape"></path>
                </g>
            </g>
        </g>
    </g>
</svg>